<svg xmlns="http://www.w3.org/2000/svg" viewBox="0 0 50.2 44.9"><style type="text/css">  
	.st0{fill:#010202;}
</style><path d="M0 27.9h2.9c1.3 0 2.3 0.2 2.8 0.6s0.9 1 0.9 1.8c0 0.6-0.1 1-0.4 1.4 -0.3 0.4-0.6 0.6-1 0.6v0.1c0.6 0.1 1 0.4 1.3 0.7 0.3 0.4 0.4 0.8 0.4 1.4 0 0.8-0.3 1.5-0.9 2 -0.6 0.5-1.4 0.7-2.5 0.7H0V27.9zM2 31.5h1.1c0.5 0 0.9-0.1 1.2-0.2 0.2-0.2 0.4-0.4 0.4-0.8 0-0.4-0.1-0.6-0.4-0.8 -0.3-0.2-0.7-0.2-1.2-0.2H2V31.5zM2 33.1v2.4h1.3c0.5 0 0.9-0.1 1.2-0.3C4.7 35 4.8 34.7 4.8 34.2c0-0.8-0.5-1.1-1.6-1.1H2z"/><path d="M11.7 37.2c-1.1 0-2-0.3-2.7-0.9 -0.6-0.6-1-1.5-1-2.7 0-1.2 0.3-2.1 0.9-2.7 0.6-0.6 1.4-1 2.4-1 1 0 1.8 0.3 2.3 0.9s0.8 1.4 0.8 2.3v0.9h-4.5c0 0.5 0.2 1 0.5 1.3 0.3 0.3 0.7 0.5 1.3 0.5 0.4 0 0.8 0 1.2-0.1 0.4-0.1 0.8-0.2 1.2-0.4v1.5c-0.3 0.2-0.7 0.3-1.1 0.4S12.3 37.2 11.7 37.2zM11.4 31.3c-0.4 0-0.7 0.1-1 0.4 -0.2 0.3-0.4 0.6-0.4 1.1h2.7c0-0.5-0.1-0.8-0.4-1.1C12.2 31.4 11.8 31.3 11.4 31.3z"/><path d="M16.3 27.9h2.9c1.3 0 2.3 0.2 2.8 0.6s0.9 1 0.9 1.8c0 0.6-0.1 1-0.4 1.4 -0.3 0.4-0.6 0.6-1 0.6v0.1c0.6 0.1 1 0.4 1.3 0.7 0.3 0.4 0.4 0.8 0.4 1.4 0 0.8-0.3 1.5-0.9 2 -0.6 0.5-1.4 0.7-2.5 0.7h-3.4V27.9zM18.2 31.5h1.1c0.5 0 0.9-0.1 1.2-0.2 0.2-0.2 0.4-0.4 0.4-0.8 0-0.4-0.1-0.6-0.4-0.8 -0.3-0.2-0.7-0.2-1.2-0.2h-1V31.5zM18.2 33.1v2.4h1.3c0.5 0 0.9-0.1 1.2-0.3 0.3-0.2 0.4-0.5 0.4-0.9 0-0.8-0.5-1.1-1.6-1.1H18.2z"/><path d="M26.7 37.1h-1.9v-9.8h1.9V37.1z"/><path d="M33.2 37.1l-0.4-1h0c-0.3 0.4-0.7 0.7-1 0.8s-0.8 0.2-1.3 0.2c-0.7 0-1.2-0.2-1.6-0.6s-0.6-0.9-0.6-1.6c0-0.7 0.3-1.3 0.8-1.7s1.3-0.6 2.4-0.6l1.2 0v-0.3c0-0.7-0.4-1.1-1.1-1.1 -0.6 0-1.2 0.2-2 0.5l-0.6-1.3c0.8-0.4 1.7-0.6 2.7-0.6 0.9 0 1.7 0.2 2.2 0.6 0.5 0.4 0.8 1 0.8 1.9v4.7H33.2zM32.6 33.8l-0.7 0c-0.6 0-1 0.1-1.2 0.3 -0.3 0.2-0.4 0.5-0.4 0.8 0 0.5 0.3 0.8 0.9 0.8 0.4 0 0.8-0.1 1.1-0.4s0.4-0.6 0.4-1V33.8z"/><path d="M39.4 37.2c-2.2 0-3.3-1.2-3.3-3.6 0-1.2 0.3-2.1 0.9-2.7 0.6-0.6 1.5-0.9 2.6-0.9 0.8 0 1.5 0.2 2.2 0.5l-0.6 1.5c-0.3-0.1-0.6-0.2-0.8-0.3 -0.3-0.1-0.5-0.1-0.8-0.1 -1 0-1.5 0.7-1.5 2.1 0 1.4 0.5 2.1 1.5 2.1 0.4 0 0.7 0 1-0.1s0.6-0.3 0.9-0.5v1.6c-0.3 0.2-0.6 0.3-0.9 0.4C40.3 37.2 39.9 37.2 39.4 37.2z"/><path d="M45 33.3l0.8-1.1 2-2.1h2.2l-2.8 3.1 3 4h-2.2l-2-2.9 -0.8 0.7v2.2h-1.9v-9.8h1.9v4.4l-0.1 1.6H45z"/><polygon class="st0" points="26 0 26 0 26 0 "/><path class="st0" d="M27 11.4c-1 2.6 0 4.1 0 4.1 1.7-1.9 3.5-4.6 3.7-7.2 0.1-1.9-0.9-3.6-2.3-4.9 -0.9-0.8-1.9-1.4-2.9-1.9 0.1-0.4 0.3-0.9 0.4-1.3 -2 0.5-4 1-5.9 1.7C19.1 2.2 17.8 2.6 17.4 3.6c-0.4 0.9 0 2.1 0.7 2.7 0 0.3 0.3 0.6 0.4 0.9l0 0c0-0.2-0.1-0.4-0.2-0.7 0.2 0.1 0.4 0.1 0.6 0.2 0.3 0.1 0.6 0.2 0.9 0.3 0.8 0.3 1.6 0.5 2.4 0.7 0.7 0.2 1.5 0.2 2.2-0.1 0.3-0.1 0.7-0.3 0.9-0.7 0.2-0.4 0.2-0.9 0.1-1.3 0.2 0.6 0.3 1.3-0.1 1.7 -0.5 0.5-1.1 0.8-1.8 0.9C22.4 8.4 21.1 7.8 20 7.4c-0.8 2.8-0.7 6.6 2.3 8 0 0-0.9-1.9 0.2-3.7 0 0-0.7 2 0.2 4.2 -0.7-0.2-1.3-0.5-1.8-0.9 -1.2-1-1.7-2.5-1.9-4 -1.5 1.8-2.6 4.2-2.1 6.5 0.5 2.6 2.5 4.8 5 5.8 1.1 0.4 2.3 0.5 3.4 0.6 1.2 0.1 3 0.3 4-0.7 0.8-0.8 0.7-2.3 0.1-3.2 -0.7-1.1-2.2-1.5-3.4-1.7 -1.4-0.3-2.5-0.4-3.9-0.6 -1.1-0.2-2.5-0.9-3.3-2.1 0.5 0.8 2.3 1.6 3.4 1.8 0.9 0.2 1.6 0.1 2.5 0.2 1.2 0.1 2.4 0.3 3.5 0.7 1 0.4 1.5 0.9 2 1.9 1.7-2.1 3.2-4.8 2.7-7.7 -0.1-0.4 0.1 0.4 0 0 -0.2-1.2-1-2.3-2-3 -0.6 2.6-2.4 4.9-4.2 6.7C26.8 16.2 25.6 13.4 27 11.4zM20.8 3.5c-0.2 0.1-0.5 0.2-0.6 0 -0.1-0.2 0.2-0.4 0.3-0.5 0.2-0.1 0.5-0.2 0.6 0C21.3 3.2 21 3.4 20.8 3.5 20.6 3.6 21.1 3.3 20.8 3.5zM25.4 0.7l-0.2 0.5c-0.1 0.4-0.8-0.3-0.6-0.4l0.7-0.2C25.3 0.5 25.4 0.6 25.4 0.7z"/><polygon class="st0" points="26.1 0.1 26.1 0.1 26.1 0.1 "/><path class="st0" d="M32.5 19c-0.5 0.9-1.7 1.9-1.7 1.9h2.3c0.2 0 0.4-0.2 0.3-0.4C33.3 20.5 33.3 20.5 32.5 19z"/><path d="M2 39.7c-0.5 0-0.8 0.2-1.1 0.5 -0.3 0.3-0.4 0.7-0.4 1.2 0 0.5 0.1 1 0.4 1.3s0.6 0.4 1.1 0.4c0.3 0 0.6-0.1 1-0.2v0.4c-0.3 0.1-0.6 0.2-1.1 0.2 -0.6 0-1.1-0.2-1.4-0.6 -0.3-0.4-0.5-0.9-0.5-1.6 0-0.4 0.1-0.8 0.2-1.1 0.2-0.3 0.4-0.6 0.7-0.7 0.3-0.2 0.7-0.3 1.1-0.3 0.4 0 0.8 0.1 1.1 0.2L2.9 39.9C2.6 39.8 2.3 39.7 2 39.7z"/><path d="M5.2 40.3c0.1 0 0.3 0 0.4 0l-0.1 0.4c-0.1 0-0.2 0-0.3 0 -0.3 0-0.5 0.1-0.6 0.3 -0.2 0.2-0.3 0.5-0.3 0.8v1.7h-0.5v-3.1H4.2l0.1 0.6h0c0.1-0.2 0.3-0.4 0.4-0.5C4.9 40.4 5 40.3 5.2 40.3z"/><path d="M7.5 43.5c-0.5 0-0.8-0.1-1.1-0.4 -0.3-0.3-0.4-0.7-0.4-1.2 0-0.5 0.1-0.9 0.4-1.2 0.2-0.3 0.6-0.4 1-0.4 0.4 0 0.7 0.1 0.9 0.4 0.2 0.3 0.3 0.6 0.3 1v0.3h-2.1c0 0.4 0.1 0.6 0.3 0.8 0.2 0.2 0.4 0.3 0.7 0.3 0.3 0 0.7-0.1 1-0.2v0.4C8.3 43.4 8.2 43.5 8 43.5S7.7 43.5 7.5 43.5zM7.4 40.7c-0.2 0-0.4 0.1-0.6 0.2 -0.1 0.2-0.2 0.4-0.3 0.7h1.6c0-0.3-0.1-0.5-0.2-0.7C7.8 40.8 7.6 40.7 7.4 40.7z"/><path d="M11.3 43.5l-0.1-0.4h0c-0.2 0.2-0.3 0.3-0.5 0.4 -0.2 0.1-0.3 0.1-0.6 0.1 -0.3 0-0.5-0.1-0.7-0.2 -0.2-0.2-0.3-0.4-0.3-0.7 0-0.6 0.5-1 1.5-1l0.5 0v-0.2c0-0.2-0.1-0.4-0.2-0.5 -0.1-0.1-0.3-0.2-0.5-0.2 -0.3 0-0.6 0.1-0.9 0.2L9.6 40.6c0.2-0.1 0.3-0.1 0.5-0.2 0.2 0 0.4-0.1 0.5-0.1 0.4 0 0.6 0.1 0.8 0.2 0.2 0.2 0.3 0.4 0.3 0.8v2.1H11.3zM10.3 43.2c0.3 0 0.5-0.1 0.7-0.2 0.2-0.2 0.3-0.4 0.3-0.7v-0.3l-0.5 0c-0.4 0-0.6 0.1-0.8 0.2s-0.2 0.3-0.2 0.5c0 0.2 0.1 0.3 0.2 0.4C10 43.1 10.1 43.2 10.3 43.2z"/><path d="M13.7 43.2c0.1 0 0.2 0 0.2 0s0.1 0 0.2 0v0.4c-0.1 0-0.1 0-0.2 0.1 -0.1 0-0.2 0-0.3 0 -0.6 0-0.9-0.3-0.9-0.9V40.8h-0.4v-0.2l0.4-0.2 0.2-0.7h0.3v0.7h0.9v0.4H13.2v1.8c0 0.2 0 0.3 0.1 0.4C13.4 43.1 13.5 43.2 13.7 43.2z"/><path d="M14.7 39.5c0-0.1 0-0.2 0.1-0.2 0.1 0 0.1-0.1 0.2-0.1 0.1 0 0.1 0 0.2 0.1s0.1 0.1 0.1 0.2c0 0.1 0 0.2-0.1 0.2s-0.1 0.1-0.2 0.1c-0.1 0-0.1 0-0.2-0.1C14.7 39.7 14.7 39.6 14.7 39.5zM15.2 43.5h-0.5v-3.1h0.5V43.5z"/><path d="M16.9 43.5l-1.2-3.1h0.5l0.7 1.8c0.2 0.4 0.2 0.7 0.3 0.8h0c0-0.1 0.1-0.3 0.2-0.6 0.1-0.3 0.4-1 0.7-2.1h0.5l-1.2 3.1H16.9z"/><path d="M20.4 43.5c-0.5 0-0.8-0.1-1.1-0.4 -0.3-0.3-0.4-0.7-0.4-1.2 0-0.5 0.1-0.9 0.4-1.2 0.2-0.3 0.6-0.4 1-0.4 0.4 0 0.7 0.1 0.9 0.4 0.2 0.3 0.3 0.6 0.3 1v0.3h-2.1c0 0.4 0.1 0.6 0.3 0.8 0.2 0.2 0.4 0.3 0.7 0.3 0.3 0 0.7-0.1 1-0.2v0.4c-0.2 0.1-0.3 0.1-0.5 0.2S20.6 43.5 20.4 43.5zM20.3 40.7c-0.2 0-0.4 0.1-0.6 0.2 -0.1 0.2-0.2 0.4-0.3 0.7h1.6c0-0.3-0.1-0.5-0.2-0.7C20.7 40.8 20.5 40.7 20.3 40.7z"/><path d="M27.5 41.4c0 0.7-0.2 1.2-0.5 1.6s-0.8 0.6-1.4 0.6c-0.6 0-1.1-0.2-1.4-0.6 -0.3-0.4-0.5-0.9-0.5-1.6 0-0.7 0.2-1.2 0.5-1.6 0.3-0.4 0.8-0.6 1.4-0.6 0.6 0 1.1 0.2 1.4 0.6C27.4 40.2 27.5 40.7 27.5 41.4zM24.2 41.4c0 0.6 0.1 1 0.4 1.3 0.2 0.3 0.6 0.4 1 0.4 0.5 0 0.8-0.1 1-0.4 0.2-0.3 0.4-0.7 0.4-1.3 0-0.6-0.1-1-0.3-1.3 -0.2-0.3-0.6-0.4-1-0.4 -0.5 0-0.8 0.1-1 0.4C24.3 40.4 24.2 40.9 24.2 41.4z"/><path d="M30.5 43.5v-2c0-0.3-0.1-0.4-0.2-0.6s-0.3-0.2-0.5-0.2c-0.3 0-0.6 0.1-0.7 0.3 -0.2 0.2-0.2 0.5-0.2 0.9v1.6h-0.5v-3.1h0.4l0.1 0.4h0c0.1-0.2 0.2-0.3 0.4-0.4 0.2-0.1 0.4-0.1 0.6-0.1 0.4 0 0.7 0.1 0.8 0.3 0.2 0.2 0.3 0.5 0.3 0.9v2H30.5z"/><path d="M33.2 43.5c-0.5 0-0.8-0.1-1.1-0.4 -0.3-0.3-0.4-0.7-0.4-1.2 0-0.5 0.1-0.9 0.4-1.2 0.2-0.3 0.6-0.4 1-0.4 0.4 0 0.7 0.1 0.9 0.4 0.2 0.3 0.3 0.6 0.3 1v0.3h-2.1c0 0.4 0.1 0.6 0.3 0.8 0.2 0.2 0.4 0.3 0.7 0.3 0.3 0 0.7-0.1 1-0.2v0.4c-0.2 0.1-0.3 0.1-0.5 0.2S33.5 43.5 33.2 43.5zM33.1 40.7c-0.2 0-0.4 0.1-0.6 0.2 -0.1 0.2-0.2 0.4-0.3 0.7h1.6c0-0.3-0.1-0.5-0.2-0.7C33.6 40.8 33.4 40.7 33.1 40.7z"/><path d="M36.6 43.5c-0.2 0-0.4 0-0.6-0.1 -0.2-0.1-0.3-0.2-0.4-0.3h0c0 0.2 0 0.4 0 0.5v1.3h-0.5v-4.5h0.4l0.1 0.4h0c0.1-0.2 0.3-0.3 0.4-0.4 0.2-0.1 0.3-0.1 0.6-0.1 0.4 0 0.7 0.1 1 0.4 0.2 0.3 0.3 0.7 0.3 1.2 0 0.5-0.1 0.9-0.3 1.2C37.4 43.4 37 43.5 36.6 43.5zM36.6 40.7c-0.3 0-0.5 0.1-0.7 0.3 -0.1 0.2-0.2 0.5-0.2 0.8v0.1c0 0.4 0.1 0.7 0.2 0.9 0.1 0.2 0.4 0.3 0.7 0.3 0.3 0 0.5-0.1 0.6-0.3 0.2-0.2 0.2-0.5 0.2-0.9 0-0.4-0.1-0.7-0.2-0.9C37.1 40.8 36.8 40.7 36.6 40.7z"/><path d="M40.7 43.5l-0.1-0.4h0c-0.2 0.2-0.3 0.3-0.5 0.4 -0.2 0.1-0.3 0.1-0.6 0.1 -0.3 0-0.5-0.1-0.7-0.2 -0.2-0.2-0.3-0.4-0.3-0.7 0-0.6 0.5-1 1.5-1l0.5 0v-0.2c0-0.2-0.1-0.4-0.2-0.5 -0.1-0.1-0.3-0.2-0.5-0.2 -0.3 0-0.6 0.1-0.9 0.2l-0.1-0.4c0.2-0.1 0.3-0.1 0.5-0.2 0.2 0 0.4-0.1 0.6-0.1 0.4 0 0.6 0.1 0.8 0.2s0.3 0.4 0.3 0.8v2.1H40.7zM39.6 43.2c0.3 0 0.5-0.1 0.7-0.2 0.2-0.2 0.3-0.4 0.3-0.7v-0.3l-0.5 0c-0.4 0-0.6 0.1-0.8 0.2 -0.2 0.1-0.2 0.3-0.2 0.5 0 0.2 0.1 0.3 0.2 0.4C39.3 43.1 39.4 43.2 39.6 43.2z"/><path d="M44.5 40.4v0.3l-0.6 0.1c0.1 0.1 0.1 0.2 0.1 0.3 0 0.1 0.1 0.2 0.1 0.4 0 0.3-0.1 0.5-0.3 0.7 -0.2 0.2-0.5 0.3-0.9 0.3 -0.1 0-0.2 0-0.3 0 -0.2 0.1-0.3 0.2-0.3 0.4 0 0.1 0 0.1 0.1 0.2 0.1 0 0.2 0.1 0.4 0.1h0.6c0.3 0 0.6 0.1 0.8 0.2 0.2 0.1 0.3 0.3 0.3 0.6 0 0.3-0.1 0.6-0.4 0.8 -0.3 0.2-0.7 0.3-1.2 0.3 -0.4 0-0.7-0.1-0.9-0.2 -0.2-0.2-0.3-0.4-0.3-0.6 0-0.2 0.1-0.4 0.2-0.5 0.1-0.1 0.3-0.2 0.5-0.3 -0.1 0-0.1-0.1-0.2-0.2s-0.1-0.2-0.1-0.3c0-0.1 0-0.2 0.1-0.3 0.1-0.1 0.2-0.2 0.3-0.2 -0.2-0.1-0.3-0.2-0.4-0.3 -0.1-0.2-0.1-0.3-0.1-0.5 0-0.3 0.1-0.6 0.3-0.8 0.2-0.2 0.5-0.3 0.9-0.3 0.2 0 0.3 0 0.4 0.1H44.5zM42 44c0 0.2 0.1 0.3 0.2 0.4 0.1 0.1 0.3 0.1 0.6 0.1 0.4 0 0.7-0.1 0.9-0.2 0.2-0.1 0.3-0.3 0.3-0.5 0-0.2-0.1-0.3-0.2-0.3 -0.1-0.1-0.3-0.1-0.6-0.1H42.7c-0.2 0-0.4 0.1-0.5 0.2C42.1 43.7 42 43.8 42 44zM42.3 41.4c0 0.2 0.1 0.4 0.2 0.5 0.1 0.1 0.3 0.2 0.5 0.2 0.5 0 0.7-0.2 0.7-0.7 0-0.5-0.2-0.7-0.7-0.7 -0.2 0-0.4 0.1-0.5 0.2C42.4 41 42.3 41.1 42.3 41.4z"/><path d="M46.5 43.5c-0.5 0-0.8-0.1-1.1-0.4 -0.3-0.3-0.4-0.7-0.4-1.2 0-0.5 0.1-0.9 0.4-1.2 0.2-0.3 0.6-0.4 1-0.4 0.4 0 0.7 0.1 0.9 0.4 0.2 0.3 0.3 0.6 0.3 1v0.3h-2.1c0 0.4 0.1 0.6 0.3 0.8 0.2 0.2 0.4 0.3 0.7 0.3 0.3 0 0.7-0.1 1-0.2v0.4c-0.2 0.1-0.3 0.1-0.5 0.2S46.7 43.5 46.5 43.5zM46.3 40.7c-0.2 0-0.4 0.1-0.6 0.2 -0.1 0.2-0.2 0.4-0.3 0.7h1.6c0-0.3-0.1-0.5-0.2-0.7C46.8 40.8 46.6 40.7 46.3 40.7z"/><path d="M49.8 40.3c0.1 0 0.3 0 0.4 0l-0.1 0.4c-0.1 0-0.2 0-0.3 0 -0.3 0-0.5 0.1-0.6 0.3 -0.2 0.2-0.3 0.5-0.3 0.8v1.7h-0.5v-3.1h0.4l0.1 0.6h0c0.1-0.2 0.3-0.4 0.4-0.5C49.5 40.4 49.6 40.3 49.8 40.3z"/></svg>