<svg id="Capa_1" enable-background="new 0 0 532.432 532.432" height="512" viewBox="0 0 532.432 532.432" width="512" xmlns="http://www.w3.org/2000/svg"><path d="m421.727 481.563v-30.996c-.097-1.744-.871-3.382-2.157-4.565v-173.898c24.75-15.229 40.211-41.725 40.211-70.3-.003-22.573-9.412-44.124-25.964-59.473-17.762-16.542-41.537-25.064-65.762-23.574-21.637 1.247-42.03 10.519-57.194 26.003-15.04 15.078-23.564 35.455-23.741 56.751-.027 8.003 1.143 15.964 3.471 23.621l-15.919 18.735-15.262-6.424c-2.824-1.189-6.095-.234-7.836 2.288l-25.507 36.943-43.08-43.98c-2.503-2.551-6.6-2.591-9.152-.088-.802.787-1.385 1.768-1.692 2.849l-19.368 68.21-9.259-5.762c-2.805-1.745-6.474-1.098-8.512 1.502l-25.406 32.41-35.235-36.845c-1.536-1.606-3.787-2.311-5.965-1.869-2.191.439-4.007 1.965-4.817 4.047l-19.36 50.882v-217.761c.025-3.395-2.707-6.168-6.102-6.194-.087-.001-.175.001-.262.004h-30.996c-3.573 0-6.861 2.616-6.861 6.19v351.295c0 3.572 3.288 5.998 6.861 5.998h408.122c3.574 0 6.744-2.425 6.744-5.999zm-377.505-37.144v-1.017l21.787-40.754 33.478 7.233c2.707.585 5.487-.613 6.921-2.981l29.39-48.666 26.317 19.522c2.781 2.064 6.693 1.573 8.878-1.113l45.657-56.119 45.647 34.468c2.778 2.096 6.716 1.619 8.914-1.079l28.394-34.806 29.244 18.61c3.015 1.919 7.015 1.03 8.934-1.985.176-.276.33-.566.462-.865l1.202-2.84c4.285 4.966 10.531 7.805 17.09 7.766h33.818c6.12.083 12.003-2.356 16.27-6.743v111.369zm303.083-151.002h52.851v24.052c-.114 5.296-4.499 9.497-9.796 9.384-.001 0-.002 0-.002 0h-33.818c-5.034.068-9.17-3.957-9.238-8.991-.002-.131-.001-.262.003-.393zm-27.201-139.597c12.915-13.186 30.283-21.081 48.71-22.142 1.51-.088 3.014-.133 4.512-.133 19.146-.068 37.6 7.156 51.612 20.202 13.944 12.914 21.878 31.052 21.895 50.057 0 24.037-13.08 46.373-34.027 59.269-2.056.089-3.948 1.152-5.092 2.863-1.277.655-2.481 1.285-3.804 1.871-2.318 1.048-3.793 3.373-3.755 5.917v8.75h-52.851v-9.045c-.079-2.622-1.692-4.953-4.118-5.952-26.183-11.182-43.132-36.272-43.036-63.92.139-17.912 7.304-35.054 19.954-47.737zm-248.054 157.501 33.328 34.832c2.482 2.588 6.592 2.675 9.181.193.219-.21.422-.434.61-.673l26.435-33.719 11.629 7.235c3.034 1.889 7.025.96 8.914-2.074.32-.514.566-1.071.732-1.654l18.665-65.745 40.764 41.619c2.501 2.553 6.598 2.596 9.152.095.295-.289.562-.606.797-.946l26.978-39.071 14.785 6.225c2.602 1.095 5.614.377 7.442-1.775l14.8-17.196c8.229 16.209 21.639 29.203 38.1 36.917v36.866l-4.731 10.307-27.827-17.652c-2.783-1.762-6.443-1.175-8.536 1.369l-28.119 34.433-45.665-34.473c-2.781-2.1-6.725-1.624-8.926 1.079l-45.691 56.16-27.062-20.077c-2.87-2.13-6.924-1.529-9.053 1.341-.123.165-.237.336-.343.512l-30.675 50.801-33.711-7.289c-2.842-.612-5.747.724-7.132 3.28l-12.669 23.657v-31.377zm336.734 163.298h-395.841v-337.597h18.336v313.545c.025 3.659 2.923 6.652 6.579 6.795h370.926z"/><path d="m373.191 97.037c3.574 0 6.472-2.897 6.472-6.472v-39.224c0-3.574-2.897-6.472-6.472-6.472s-6.472 2.897-6.472 6.472v39.224c0 3.574 2.898 6.472 6.472 6.472z"/><path d="m220.939 203.894h40.821c3.574 0 6.471-2.897 6.471-6.472 0-3.574-2.897-6.472-6.471-6.472h-40.821c-3.574 0-6.472 2.897-6.472 6.472s2.897 6.472 6.472 6.472z"/><path d="m525.961 190.951h-40.822c-3.574 0-6.471 2.897-6.471 6.472 0 3.574 2.897 6.472 6.471 6.472h40.822c3.574 0 6.471-2.897 6.471-6.472 0-3.574-2.897-6.472-6.471-6.472z"/><path d="m290.287 126.636c2.591 2.462 6.687 2.357 9.149-.235 2.462-2.591 2.357-6.687-.235-9.149l-29.065-27.612c-2.591-2.462-6.687-2.357-9.149.235s-2.357 6.687.235 9.149z"/><path d="m452.155 128.416c1.659.002 3.255-.635 4.456-1.78l29.066-27.612c2.591-2.462 2.696-6.558.235-9.149-2.462-2.591-6.558-2.696-9.149-.235l-29.066 27.612c-2.591 2.462-2.696 6.558-.235 9.149 1.222 1.287 2.919 2.015 4.693 2.015z"/></svg>