<svg id="Capa_1" enable-background="new 0 0 517.288 517.288" height="512" viewBox="0 0 517.288 517.288" width="512" xmlns="http://www.w3.org/2000/svg"><path d="m296.529 247.857c0-3.574-2.897-6.472-6.472-6.472h-59.457v-82.499c0-3.574-2.897-6.472-6.472-6.472-3.574 0-6.472 2.897-6.472 6.472v89.453c0 3.574 3.236 5.989 6.813 5.989h65.587c3.575.001 6.473-2.897 6.473-6.471z"/><path d="m465.988 265.026c1.359-10.281 2.042-20.64 2.044-31.01 0-129.244-104.772-234.016-234.015-234.016-62.065 0-121.588 24.655-165.475 68.542-91.388 91.39-91.387 239.561.002 330.949 43.886 43.885 103.407 68.54 165.471 68.541 10.37-.003 20.729-.685 31.01-2.044 27.079 32.51 67.205 51.306 109.515 51.3 78.71 0 142.744-64.035 142.744-142.744.01-42.312-18.785-82.438-51.296-109.518zm-231.972 190.063c-121.9 0-221.075-99.173-221.075-221.073s99.175-221.075 221.075-221.075 221.073 99.173 221.073 221.072c0 7.342-.372 14.704-1.09 21.997-12.809-8.62-26.937-15.095-41.829-19.172.014-.943.029-1.885.029-2.825 0-98.249-79.932-178.182-178.182-178.182s-178.182 79.933-178.182 178.182 79.933 178.182 178.182 178.182c.938 0 1.881-.016 2.824-.03 4.077 14.892 10.553 29.02 19.174 41.83-7.295.723-14.658 1.094-21.999 1.094zm-2.219-80.548c-.002 8.285.717 16.554 2.147 24.714-91.081-.039-165.168-74.15-165.168-165.239 0-91.114 74.126-165.239 165.239-165.239 91.09 0 165.201 74.087 165.239 165.167-8.16-1.43-16.429-2.148-24.714-2.146-78.708-.001-142.743 64.033-142.743 142.743zm142.745 129.804c-71.687-.001-129.8-58.116-129.799-129.803s58.116-129.8 129.803-129.799c71.686.001 129.798 58.114 129.799 129.799-.08 71.655-58.148 129.723-129.803 129.803z"/><path d="m415.214 279.136h-.018c-13.699.052-26.808 5.576-36.413 15.343l-74.896 75.393c-.944.968-1.569 2.202-1.793 3.536l-12.988 76.282c-.598 3.538 1.785 6.89 5.323 7.488.71.12 1.434.121 2.145.004l76.256-12.987c1.316-.224 2.531-.85 3.477-1.792l75.275-74.895.008-.008c9.695-9.63 15.133-22.739 15.1-36.404.046-28.527-22.95-51.74-51.476-51.96zm-53.449 139.552 63.002-62.601 9.941 9.942-62.959 62.644zm-9.153-9.153-15.861-15.855 62.602-63.003 16.261 16.262zm-25.012-25.011-9.986-9.986 62.644-62.96 9.942 9.942zm-14.848 3.451 45.553 45.56-54.911 9.354zm131.091-31.12-54.413-54.647c7.034-6.459 16.219-10.069 25.768-10.129h.015c21.464.184 38.714 17.734 38.529 39.197-.081 9.447-3.601 18.541-9.9 25.582z"/></svg>