<svg id="Capa_1" enable-background="new 0 0 498.307 498.307" height="512" viewBox="0 0 498.307 498.307" width="512" xmlns="http://www.w3.org/2000/svg"><path d="m6.563 381.819h169.74l-17.809 63.637h-31.038c-3.574 0-6.472 2.897-6.472 6.472 0 3.574 2.897 6.471 6.472 6.471h243.394c3.574 0 6.472-2.897 6.472-6.471s-2.897-6.472-6.472-6.472h-31.038l-17.809-63.637h169.739c3.649-.133 6.544-3.12 6.564-6.771v-68.561-12.943-246.742c-.011-3.676-2.893-6.703-6.564-6.894h-485.179c-3.671.191-6.553 3.218-6.563 6.894v328.246c.02 3.651 2.914 6.638 6.563 6.771zm319.807 63.637h-154.434l17.81-63.637h118.815zm-313.427-392.605h472.421v240.525h-101.632l6.185-90.446 21.2-87.385c.467-1.88.022-3.87-1.203-5.37-1.244-1.519-3.124-2.375-5.087-2.316h-104.138c-3.465-.111-6.363 2.608-6.473 6.073-.018.55.037 1.101.163 1.637l19.962 87.35 6.188 90.457h-34.705v-107.688c-.002-.927-.202-1.842-.588-2.685l-32.657-71.627c-1.482-3.252-5.32-4.688-8.572-3.206-1.42.647-2.559 1.786-3.206 3.206l-32.897 71.627c-.458.828-.737 1.742-.821 2.685v107.687h-24.803v-179.313c.193-3.228-2.266-6.001-5.494-6.194-.166-.01-.333-.013-.5-.009h-82.806c-3.285-.094-6.024 2.494-6.118 5.779-.004.141-.003.283.003.424v179.314h-74.422zm314.75 155.316h48.876l-4.525 66.872h-39.827zm50.715-12.943h-4.638l5.301-36.94c.517-3.538-1.932-6.826-5.471-7.343-3.538-.517-6.826 1.932-7.343 5.471l-5.559 38.813h-2.608v-36.672c0-3.574-2.897-6.472-6.472-6.472s-6.472 2.897-6.472 6.472v36.672h-1.916l-5.562-38.772c-.602-3.523-3.947-5.891-7.47-5.288-3.372.577-5.713 3.678-5.343 7.079l5.298 36.981h-4.232l-17.124-74.422h87.797zm-44.909 98.151-.401-5.393h38.058l-.401 5.393zm-113.467-101.387h52.851v101.387h-52.851zm4.067-12.943 22.591-49.555 22.591 49.555zm-123.791 83.051h21.235c3.574 0 6.472-2.897 6.472-6.472s-2.897-6.472-6.472-6.472h-21.235v-31.279h14.561c3.574 0 6.472-2.897 6.472-6.472s-2.897-6.472-6.472-6.472h-14.561v-31.279h21.235c3.574 0 6.472-2.897 6.472-6.472 0-3.574-2.897-6.472-6.472-6.472h-21.235v-39.908h69.029v172.574h-69.029zm385.056 44.222v62.558h-472.421v-62.558z"/></svg>