<svg id="Capa_1" enable-background="new 0 0 530.667 530.667" height="512" viewBox="0 0 530.667 530.667" width="512" xmlns="http://www.w3.org/2000/svg"><path d="m415.327 216.409c-.235-3.401-3.046-6.049-6.454-6.081h-71.864l-.18-6.006 6.399-111.808 20.442-84.285c.467-1.965.026-4.036-1.203-5.64-1.214-1.591-3.086-2.543-5.087-2.589h-100.48c-3.674.103-6.569 3.165-6.466 6.839.012.423.064.844.156 1.257l19.25 84.374 6.4 111.828-.195 6.029h-33.36v-134.5c.015-.924-.169-1.839-.539-2.686l-31.484-69.11c-1.478-3.246-5.307-4.68-8.554-3.203-1.419.646-2.557 1.784-3.203 3.203l-31.322 69.11c-.325.856-.462 1.772-.399 2.686v134.5h-45.386c-3.409.032-6.219 2.68-6.454 6.081l-18.75 262.449c-1.918 26.627 18.112 49.767 44.738 51.685 1.078.078 2.158.119 3.238.124h241.53c26.676-.112 48.211-21.828 48.099-48.505-.005-1.082-.045-2.164-.123-3.244zm-132.204-118.254h46.82l-3.629 63.637h-39.561zm66.03-85.209-17.442 72.265h-4.109l5.156-36.126c.564-3.529-1.84-6.848-5.369-7.412s-6.848 1.84-7.412 5.369c-.012.074-.022.148-.032.223l-5.417 37.946h-1.734v-36.671c0-3.574-2.897-6.472-6.471-6.472s-6.472 2.897-6.472 6.472v36.672h-1.628l-5.416-37.957c-.509-3.538-3.789-5.994-7.327-5.485s-5.994 3.789-5.485 7.327l5.155 36.114h-3.718l-16.419-72.265h84.14zm-59.97 191.126-1.69-29.338h38.085l-1.687 29.338c-.011.14-.014.28-.008.421l.177 5.834h-35.065l.191-5.818c.006-.146.004-.292-.008-.437zm-84.385-182.077 21.444 47.038h-42.89zm-24.671 59.981h49.615v128.352h-49.615zm231.704 424.423c-6.612 7.213-15.946 11.322-25.731 11.325h-241.53c-19.532-.114-35.274-16.041-35.16-35.573.005-.782.035-1.564.092-2.345l18.322-256.536h275.022l18.322 256.536c.74 9.78-2.646 19.423-9.337 26.593z"/><path d="m331.129 243.403c-3.574 0-6.471 2.897-6.471 6.472v103.652c0 30.935-26.446 56.104-59.322 56.104s-59.322-25.169-59.322-56.104v-103.652c0-3.574-2.897-6.472-6.472-6.472-3.574 0-6.472 2.897-6.472 6.472v103.652c0 38.074 32.25 69.047 72.265 69.047s72.265-30.975 72.265-69.047v-103.652c.001-3.574-2.896-6.472-6.471-6.472z"/></svg>