<svg id="Capa_1" enable-background="new 0 0 504.778 504.778" height="512" viewBox="0 0 504.778 504.778" width="512" xmlns="http://www.w3.org/2000/svg"><path d="m447.182 18.353h-295.612c-31.793 0-57.733 26.977-57.733 60.131v123.228h-57.951c-19.825.001-35.886 16.448-35.886 37.055v143.697c0 20.607 16.061 37.123 35.886 37.123h17.67l3.955 60.694c.137 3.527 3.107 6.276 6.635 6.139 1.702-.066 3.307-.809 4.46-2.063l62.946-64.77h126.912c19.824 0 35.99-16.515 35.99-37.123v-40.986l72.373 83.305c1.698 1.963 4.409 2.715 6.876 1.908 2.485-.866 4.226-3.116 4.441-5.739l8.498-99.516h60.54c31.793 0 57.596-26.696 57.596-59.851v-183.101c0-33.155-25.8-60.131-57.596-60.131zm-165.671 364.111c0 13.47-10.354 24.18-23.047 24.18h-129.646c-1.762.047-3.432.797-4.638 2.083l-54.7 56.257-3.402-52.192c-.211-3.424-3.028-6.105-6.459-6.148h-23.729c-12.692 0-22.947-10.709-22.947-24.18v-143.697c0-13.47 10.255-24.112 22.943-24.112h57.951v46.929c0 33.155 25.94 59.851 57.733 59.851h125.667l4.273 5.15v55.879zm210.324-120.879c0 26.018-19.993 46.908-44.653 46.908h-66.482c-3.386.064-6.174 2.682-6.449 6.057l-7.708 90.135-81.473-93.862c-1.219-1.442-2.998-2.291-4.886-2.331h-128.614c-24.656 0-44.79-20.89-44.79-46.908v-183.1c0-26.018 20.134-47.188 44.79-47.188h295.611c24.661 0 44.653 21.17 44.653 47.188v183.101z"/><path d="m301.102 52.043c-1.783-3.098-5.74-4.163-8.837-2.38-.989.57-1.811 1.391-2.38 2.38l-63.899 111.164c-1.036 1.802-1.143 3.991-.289 5.886l27.628 61.264c-2.794.043-5.245 1.874-6.078 4.541l-12.182 39.153c-.61 1.992-.251 4.155.971 5.843 1.211 1.678 3.143 2.686 5.212 2.718h108.49c3.639-.067 6.535-3.071 6.468-6.71-.011-.614-.108-1.223-.288-1.81l-12.182-39.173c-.649-2.077-2.298-3.689-4.389-4.291l26.003-61.671c.786-1.864.656-3.988-.352-5.741zm-5.608 91.643c4.423 0 8.009 3.586 8.009 8.008 0 4.423-3.586 8.008-8.008 8.009-4.423 0-8.009-3.586-8.009-8.008.005-4.42 3.586-8.003 8.006-8.01zm-45.457 125.977 8.155-25.886h74.6l8.154 25.886zm75.372-38.829h-57.889l-28.644-63.801 50.184-87.525v52.268c-8.688 2.727-14.574 10.812-14.5 19.917.083 11.573 9.531 20.887 21.104 20.805 11.456-.082 20.723-9.349 20.805-20.805.088-9.099-5.785-17.186-14.465-19.917v-52.267l50.194 87.607z"/></svg>