<?xml version="1.0" encoding="utf-8"?>
<!-- Generator: Adobe Illustrator 19.0.0, SVG Export Plug-In . SVG Version: 6.00 Build 0)  -->
<svg version="1.1" id="Ebene_1" xmlns="http://www.w3.org/2000/svg" xmlns:xlink="http://www.w3.org/1999/xlink" x="0px" y="0px"
	 viewBox="-255.2 399 74 24" style="enable-background:new -255.2 399 74 24;" xml:space="preserve">
<style type="text/css">
	.st0{fill:#FFFFFF;}
</style>
<path class="st0" d="M-246,399L-246,399L-246,399z"/>
<path class="st0" d="M-245,410.4c-1,2.6,0,4.1,0,4.1c1.7-1.9,3.5-4.6,3.7-7.2c0.1-1.9-0.9-3.6-2.3-4.9c-0.9-0.8-1.9-1.4-2.9-1.9
	c0.1-0.4,0.3-0.9,0.4-1.3c-2,0.5-4,1-5.9,1.7c-0.9,0.3-2.2,0.7-2.6,1.7c-0.4,0.9,0,2.1,0.7,2.7c0,0.3,0.3,0.6,0.4,0.9l0,0
	c0-0.2-0.1-0.4-0.2-0.7c0.2,0.1,0.4,0.1,0.6,0.2c0.3,0.1,0.6,0.2,0.9,0.3c0.8,0.3,1.6,0.5,2.4,0.7c0.7,0.2,1.5,0.2,2.2-0.1
	c0.3-0.1,0.7-0.3,0.9-0.7s0.2-0.9,0.1-1.3c0.2,0.6,0.3,1.3-0.1,1.7c-0.5,0.5-1.1,0.8-1.8,0.9c-1.1,0.2-2.4-0.4-3.5-0.8
	c-0.8,2.8-0.7,6.6,2.3,8c0,0-0.9-1.9,0.2-3.7c0,0-0.7,2,0.2,4.2c-0.7-0.2-1.3-0.5-1.8-0.9c-1.2-1-1.7-2.5-1.9-4
	c-1.5,1.8-2.6,4.2-2.1,6.5c0.5,2.6,2.5,4.8,5,5.8c1.1,0.4,2.3,0.5,3.4,0.6c1.2,0.1,3,0.3,4-0.7c0.8-0.8,0.7-2.3,0.1-3.2
	c-0.7-1.1-2.2-1.5-3.4-1.7c-1.4-0.3-2.5-0.4-3.9-0.6c-1.1-0.2-2.5-0.9-3.3-2.1c0.5,0.8,2.3,1.6,3.4,1.8c0.9,0.2,1.6,0.1,2.5,0.2
	c1.2,0.1,2.4,0.3,3.5,0.7c1,0.4,1.5,0.9,2,1.9c1.7-2.1,3.2-4.8,2.7-7.7c-0.1-0.4,0.1,0.4,0,0c-0.2-1.2-1-2.3-2-3
	c-0.6,2.6-2.4,4.9-4.2,6.7C-245.2,415.2-246.4,412.4-245,410.4z M-251.2,402.5c-0.2,0.1-0.5,0.2-0.6,0c-0.1-0.2,0.2-0.4,0.3-0.5
	c0.2-0.1,0.5-0.2,0.6,0C-250.7,402.2-251,402.4-251.2,402.5C-251.4,402.6-250.9,402.3-251.2,402.5z M-246.6,399.7l-0.2,0.5
	c-0.1,0.4-0.8-0.3-0.6-0.4l0.7-0.2C-246.7,399.5-246.6,399.6-246.6,399.7z"/>
<path class="st0" d="M-245.9,399.1L-245.9,399.1L-245.9,399.1z"/>
<path class="st0" d="M-239.5,418c-0.5,0.9-1.7,1.9-1.7,1.9h2.3c0.2,0,0.4-0.2,0.3-0.4C-238.7,419.5-238.7,419.5-239.5,418z"/>
<g>
	<path class="st0" d="M-231.4,402.8h2.9c1.3,0,2.3,0.2,2.8,0.6c0.5,0.4,0.9,1,0.9,1.8c0,0.6-0.1,1-0.4,1.4s-0.6,0.6-1,0.6v0.1
		c0.6,0.1,1,0.4,1.3,0.7c0.3,0.4,0.4,0.8,0.4,1.4c0,0.8-0.3,1.5-0.9,2s-1.4,0.7-2.5,0.7h-3.5V402.8z M-229.4,406.4h1.1
		c0.5,0,0.9-0.1,1.2-0.2c0.2-0.2,0.4-0.4,0.4-0.8c0-0.4-0.1-0.6-0.4-0.8c-0.3-0.2-0.7-0.2-1.2-0.2h-1.1V406.4z M-229.4,408v2.4h1.3
		c0.5,0,0.9-0.1,1.2-0.3c0.2-0.2,0.3-0.5,0.3-1c0-0.8-0.5-1.1-1.6-1.1C-228.2,408-229.4,408-229.4,408z"/>
	<path class="st0" d="M-219.7,412.1c-1.1,0-2-0.3-2.7-0.9c-0.6-0.6-1-1.5-1-2.7c0-1.2,0.3-2.1,0.9-2.7c0.6-0.6,1.4-1,2.4-1
		s1.8,0.3,2.3,0.9s0.8,1.4,0.8,2.3v0.9h-4.5c0,0.5,0.2,1,0.5,1.3c0.3,0.3,0.7,0.5,1.3,0.5c0.4,0,0.8,0,1.2-0.1
		c0.4-0.1,0.8-0.2,1.2-0.4v1.5c-0.3,0.2-0.7,0.3-1.1,0.4C-218.8,412.2-219.1,412.1-219.7,412.1z M-220,406.2c-0.4,0-0.7,0.1-1,0.4
		c-0.2,0.3-0.4,0.6-0.4,1.1h2.7c0-0.5-0.1-0.8-0.4-1.1C-219.2,406.3-219.6,406.2-220,406.2z"/>
	<path class="st0" d="M-215.1,402.8h2.9c1.3,0,2.3,0.2,2.8,0.6c0.5,0.4,0.9,1,0.9,1.8c0,0.6-0.1,1-0.4,1.4s-0.6,0.6-1,0.6v0.1
		c0.6,0.1,1,0.4,1.3,0.7c0.3,0.4,0.4,0.8,0.4,1.4c0,0.8-0.3,1.5-0.9,2c-0.6,0.5-1.4,0.7-2.5,0.7h-3.4L-215.1,402.8L-215.1,402.8z
		 M-213.2,406.4h1.1c0.5,0,0.9-0.1,1.2-0.2c0.2-0.2,0.4-0.4,0.4-0.8c0-0.4-0.1-0.6-0.4-0.8c-0.3-0.2-0.7-0.2-1.2-0.2h-1v2H-213.2z
		 M-213.2,408v2.4h1.3c0.5,0,0.9-0.1,1.2-0.3c0.3-0.2,0.4-0.5,0.4-0.9c0-0.8-0.5-1.1-1.6-1.1h-1.3V408z"/>
	<path class="st0" d="M-204.7,412h-1.9v-9.8h1.9V412z"/>
	<path class="st0" d="M-198.2,412l-0.4-1l0,0c-0.3,0.4-0.7,0.7-1,0.8c-0.3,0.1-0.8,0.2-1.3,0.2c-0.7,0-1.2-0.2-1.6-0.6
		c-0.4-0.4-0.6-0.9-0.6-1.6c0-0.7,0.3-1.3,0.8-1.7s1.3-0.6,2.4-0.6h1.2v-0.3c0-0.7-0.4-1.1-1.1-1.1c-0.6,0-1.2,0.2-2,0.5l-0.6-1.3
		c0.8-0.4,1.7-0.6,2.7-0.6c0.9,0,1.7,0.2,2.2,0.6s0.8,1,0.8,1.9v4.7L-198.2,412L-198.2,412z M-198.8,408.7h-0.7
		c-0.6,0-1,0.1-1.2,0.3c-0.3,0.2-0.4,0.5-0.4,0.8c0,0.5,0.3,0.8,0.9,0.8c0.4,0,0.8-0.1,1.1-0.4c0.3-0.3,0.4-0.6,0.4-1v-0.5H-198.8z"
		/>
	<path class="st0" d="M-192,412.1c-2.2,0-3.3-1.2-3.3-3.6c0-1.2,0.3-2.1,0.9-2.7s1.5-0.9,2.6-0.9c0.8,0,1.5,0.2,2.2,0.5l-0.6,1.5
		c-0.3-0.1-0.6-0.2-0.8-0.3c-0.3-0.1-0.5-0.1-0.8-0.1c-1,0-1.5,0.7-1.5,2.1s0.5,2.1,1.5,2.1c0.4,0,0.7,0,1-0.1s0.6-0.3,0.9-0.5v1.6
		c-0.3,0.2-0.6,0.3-0.9,0.4C-191.1,412.1-191.5,412.1-192,412.1z"/>
	<path class="st0" d="M-186.4,408.2l0.8-1.1l2-2.1h2.2l-2.8,3.1l3,4h-2.2l-2-2.9l-0.8,0.7v2.2h-1.9v-9.8h1.9v4.4l-0.1,1.6h-0.1
		V408.2z"/>
	<path class="st0" d="M-229.4,414.6c-0.5,0-0.8,0.2-1.1,0.5c-0.3,0.3-0.4,0.7-0.4,1.2s0.1,1,0.4,1.3c0.3,0.3,0.6,0.4,1.1,0.4
		c0.3,0,0.6-0.1,1-0.2v0.4c-0.3,0.1-0.6,0.2-1.1,0.2c-0.6,0-1.1-0.2-1.4-0.6s-0.5-0.9-0.5-1.6c0-0.4,0.1-0.8,0.2-1.1
		c0.2-0.3,0.4-0.6,0.7-0.7c0.3-0.2,0.7-0.3,1.1-0.3s0.8,0.1,1.1,0.2l-0.2,0.5C-228.8,414.7-229.1,414.6-229.4,414.6z"/>
	<path class="st0" d="M-226.2,415.2c0.1,0,0.3,0,0.4,0l-0.1,0.4c-0.1,0-0.2,0-0.3,0c-0.3,0-0.5,0.1-0.6,0.3
		c-0.2,0.2-0.3,0.5-0.3,0.8v1.7h-0.5v-3.1h0.4l0.1,0.6l0,0c0.1-0.2,0.3-0.4,0.4-0.5C-226.5,415.3-226.4,415.2-226.2,415.2z"/>
	<path class="st0" d="M-223.9,418.4c-0.5,0-0.8-0.1-1.1-0.4c-0.3-0.3-0.4-0.7-0.4-1.2s0.1-0.9,0.4-1.2c0.2-0.3,0.6-0.4,1-0.4
		c0.4,0,0.7,0.1,0.9,0.4s0.3,0.6,0.3,1v0.3h-2.1c0,0.4,0.1,0.6,0.3,0.8c0.2,0.2,0.4,0.3,0.7,0.3s0.7-0.1,1-0.2v0.4
		c-0.2,0.1-0.3,0.2-0.5,0.2S-223.7,418.4-223.9,418.4z M-224,415.6c-0.2,0-0.4,0.1-0.6,0.2c-0.1,0.2-0.2,0.4-0.3,0.7h1.6
		c0-0.3-0.1-0.5-0.2-0.7C-223.6,415.7-223.8,415.6-224,415.6z"/>
	<path class="st0" d="M-220.1,418.4l-0.1-0.4l0,0c-0.2,0.2-0.3,0.3-0.5,0.4c-0.2,0.1-0.3,0.1-0.6,0.1c-0.3,0-0.5-0.1-0.7-0.2
		c-0.2-0.2-0.3-0.4-0.3-0.7c0-0.6,0.5-1,1.5-1h0.5v-0.2c0-0.2-0.1-0.4-0.2-0.5c-0.1-0.1-0.3-0.2-0.5-0.2c-0.3,0-0.6,0.1-0.9,0.2
		l0.1-0.4c0.2-0.1,0.3-0.1,0.5-0.2c0.2,0,0.4-0.1,0.5-0.1c0.4,0,0.6,0.1,0.8,0.2c0.2,0.2,0.3,0.4,0.3,0.8v2.1h-0.4V418.4z
		 M-221.1,418.1c0.3,0,0.5-0.1,0.7-0.2c0.2-0.2,0.3-0.4,0.3-0.7v-0.3h-0.5c-0.4,0-0.6,0.1-0.8,0.2s-0.2,0.3-0.2,0.5
		c0,0.2,0.1,0.3,0.2,0.4C-221.4,418-221.3,418.1-221.1,418.1z"/>
	<path class="st0" d="M-217.7,418.1c0.1,0,0.2,0,0.2,0s0.1,0,0.2,0v0.4c-0.1,0-0.1,0-0.2,0.1c-0.1,0-0.2,0-0.3,0
		c-0.6,0-0.9-0.3-0.9-0.9v-2h-0.4v-0.2l0.4-0.2l0.2-0.7h0.3v0.7h0.9v0.4h-0.9v1.8c0,0.2,0,0.3,0.1,0.4
		C-218,418-217.9,418.1-217.7,418.1z"/>
	<path class="st0" d="M-216.7,414.4c0-0.1,0-0.2,0.1-0.2c0.1,0,0.1-0.1,0.2-0.1s0.1,0,0.2,0.1c0.1,0.1,0.1,0.1,0.1,0.2
		c0,0.1,0,0.2-0.1,0.2c-0.1,0-0.1,0.1-0.2,0.1s-0.1,0-0.2-0.1C-216.7,414.6-216.7,414.5-216.7,414.4z M-216.2,418.4h-0.5v-3.1h0.5
		V418.4z"/>
	<path class="st0" d="M-214.5,418.4l-1.2-3.1h0.5l0.7,1.8c0.2,0.4,0.2,0.7,0.3,0.8l0,0c0-0.1,0.1-0.3,0.2-0.6c0.1-0.3,0.4-1,0.7-2.1
		h0.5l-1.2,3.1h-0.5V418.4z"/>
	<path class="st0" d="M-211,418.4c-0.5,0-0.8-0.1-1.1-0.4c-0.3-0.3-0.4-0.7-0.4-1.2s0.1-0.9,0.4-1.2c0.2-0.3,0.6-0.4,1-0.4
		c0.4,0,0.7,0.1,0.9,0.4s0.3,0.6,0.3,1v0.3h-2.1c0,0.4,0.1,0.6,0.3,0.8c0.2,0.2,0.4,0.3,0.7,0.3s0.7-0.1,1-0.2v0.4
		c-0.2,0.1-0.3,0.1-0.5,0.2C-210.7,418.5-210.8,418.4-211,418.4z M-211.1,415.6c-0.2,0-0.4,0.1-0.6,0.2c-0.1,0.2-0.2,0.4-0.3,0.7
		h1.6c0-0.3-0.1-0.5-0.2-0.7C-210.7,415.7-210.9,415.6-211.1,415.6z"/>
	<path class="st0" d="M-203.9,416.3c0,0.7-0.2,1.2-0.5,1.6c-0.3,0.4-0.8,0.6-1.4,0.6c-0.6,0-1.1-0.2-1.4-0.6
		c-0.3-0.4-0.5-0.9-0.5-1.6c0-0.7,0.2-1.2,0.5-1.6s0.8-0.6,1.4-0.6c0.6,0,1.1,0.2,1.4,0.6C-204,415.1-203.9,415.6-203.9,416.3z
		 M-207.2,416.3c0,0.6,0.1,1,0.4,1.3c0.2,0.3,0.6,0.4,1,0.4c0.5,0,0.8-0.1,1-0.4c0.2-0.3,0.4-0.7,0.4-1.3s-0.1-1-0.3-1.3
		c-0.2-0.3-0.6-0.4-1-0.4c-0.5,0-0.8,0.1-1,0.4C-207.1,415.3-207.2,415.8-207.2,416.3z"/>
	<path class="st0" d="M-200.9,418.4v-2c0-0.3-0.1-0.4-0.2-0.6c-0.1-0.2-0.3-0.2-0.5-0.2c-0.3,0-0.6,0.1-0.7,0.3
		c-0.2,0.2-0.2,0.5-0.2,0.9v1.6h-0.5v-3.1h0.4l0.1,0.4l0,0c0.1-0.2,0.2-0.3,0.4-0.4c0.2-0.1,0.4-0.1,0.6-0.1c0.4,0,0.7,0.1,0.8,0.3
		c0.2,0.2,0.3,0.5,0.3,0.9v2C-200.4,418.4-200.9,418.4-200.9,418.4z"/>
	<path class="st0" d="M-198.2,418.4c-0.5,0-0.8-0.1-1.1-0.4c-0.3-0.3-0.4-0.7-0.4-1.2s0.1-0.9,0.4-1.2c0.2-0.3,0.6-0.4,1-0.4
		c0.4,0,0.7,0.1,0.9,0.4s0.3,0.6,0.3,1v0.3h-2.1c0,0.4,0.1,0.6,0.3,0.8c0.2,0.2,0.4,0.3,0.7,0.3c0.3,0,0.7-0.1,1-0.2v0.4
		c-0.2,0.1-0.3,0.1-0.5,0.2C-197.9,418.5-197.9,418.4-198.2,418.4z M-198.3,415.6c-0.2,0-0.4,0.1-0.6,0.2c-0.1,0.2-0.2,0.4-0.3,0.7
		h1.6c0-0.3-0.1-0.5-0.2-0.7C-197.8,415.7-198,415.6-198.3,415.6z"/>
	<path class="st0" d="M-194.8,418.4c-0.2,0-0.4,0-0.6-0.1s-0.3-0.2-0.4-0.3l0,0c0,0.2,0,0.4,0,0.5v1.3h-0.5v-4.5h0.4l0.1,0.4l0,0
		c0.1-0.2,0.3-0.3,0.4-0.4c0.2-0.1,0.3-0.1,0.6-0.1c0.4,0,0.7,0.1,1,0.4c0.2,0.3,0.3,0.7,0.3,1.2s-0.1,0.9-0.3,1.2
		C-194,418.3-194.4,418.4-194.8,418.4z M-194.8,415.6c-0.3,0-0.5,0.1-0.7,0.3c-0.1,0.2-0.2,0.5-0.2,0.8v0.1c0,0.4,0.1,0.7,0.2,0.9
		s0.4,0.3,0.7,0.3c0.3,0,0.5-0.1,0.6-0.3c0.2-0.2,0.2-0.5,0.2-0.9c0-0.4-0.1-0.7-0.2-0.9C-194.3,415.7-194.6,415.6-194.8,415.6z"/>
	<path class="st0" d="M-190.7,418.4l-0.1-0.4l0,0c-0.2,0.2-0.3,0.3-0.5,0.4c-0.2,0.1-0.3,0.1-0.6,0.1s-0.5-0.1-0.7-0.2
		c-0.2-0.2-0.3-0.4-0.3-0.7c0-0.6,0.5-1,1.5-1h0.5v-0.2c0-0.2-0.1-0.4-0.2-0.5c-0.1-0.1-0.3-0.2-0.5-0.2c-0.3,0-0.6,0.1-0.9,0.2
		l-0.1-0.4c0.2-0.1,0.3-0.1,0.5-0.2c0.2,0,0.4-0.1,0.6-0.1c0.4,0,0.6,0.1,0.8,0.2c0.2,0.1,0.3,0.4,0.3,0.8v2.1h-0.3V418.4z
		 M-191.8,418.1c0.3,0,0.5-0.1,0.7-0.2c0.2-0.2,0.3-0.4,0.3-0.7v-0.3h-0.5c-0.4,0-0.6,0.1-0.8,0.2c-0.2,0.1-0.2,0.3-0.2,0.5
		c0,0.2,0.1,0.3,0.2,0.4C-192.1,418-192,418.1-191.8,418.1z"/>
	<path class="st0" d="M-186.9,415.3v0.3l-0.6,0.1c0.1,0.1,0.1,0.2,0.1,0.3c0,0.1,0.1,0.2,0.1,0.4c0,0.3-0.1,0.5-0.3,0.7
		c-0.2,0.2-0.5,0.3-0.9,0.3c-0.1,0-0.2,0-0.3,0c-0.2,0.1-0.3,0.2-0.3,0.4c0,0.1,0,0.1,0.1,0.2c0.1,0,0.2,0.1,0.4,0.1h0.6
		c0.3,0,0.6,0.1,0.8,0.2s0.3,0.3,0.3,0.6c0,0.3-0.1,0.6-0.4,0.8s-0.7,0.3-1.2,0.3c-0.4,0-0.7-0.1-0.9-0.2c-0.2-0.2-0.3-0.4-0.3-0.6
		c0-0.2,0.1-0.4,0.2-0.5c0.1-0.1,0.3-0.2,0.5-0.3c-0.1,0-0.1-0.1-0.2-0.2c-0.1-0.1-0.1-0.2-0.1-0.3c0-0.1,0-0.2,0.1-0.3
		c0.1-0.1,0.2-0.2,0.3-0.2c-0.2-0.1-0.3-0.2-0.4-0.3c-0.1-0.2-0.1-0.3-0.1-0.5c0-0.3,0.1-0.6,0.3-0.8c0.2-0.2,0.5-0.3,0.9-0.3
		c0.2,0,0.3,0,0.4,0.1h0.9V415.3z M-189.4,418.9c0,0.2,0.1,0.3,0.2,0.4s0.3,0.1,0.6,0.1c0.4,0,0.7-0.1,0.9-0.2s0.3-0.3,0.3-0.5
		s-0.1-0.3-0.2-0.3c-0.1-0.1-0.3-0.1-0.6-0.1h-0.5c-0.2,0-0.4,0.1-0.5,0.2C-189.3,418.6-189.4,418.7-189.4,418.9z M-189.1,416.3
		c0,0.2,0.1,0.4,0.2,0.5c0.1,0.1,0.3,0.2,0.5,0.2c0.5,0,0.7-0.2,0.7-0.7s-0.2-0.7-0.7-0.7c-0.2,0-0.4,0.1-0.5,0.2
		C-189,415.9-189.1,416-189.1,416.3z"/>
	<path class="st0" d="M-184.9,418.4c-0.5,0-0.8-0.1-1.1-0.4c-0.3-0.3-0.4-0.7-0.4-1.2s0.1-0.9,0.4-1.2c0.2-0.3,0.6-0.4,1-0.4
		c0.4,0,0.7,0.1,0.9,0.4s0.3,0.6,0.3,1v0.3h-2.1c0,0.4,0.1,0.6,0.3,0.8c0.2,0.2,0.4,0.3,0.7,0.3s0.7-0.1,1-0.2v0.4
		c-0.2,0.1-0.3,0.1-0.5,0.2C-184.6,418.5-184.7,418.4-184.9,418.4z M-185.1,415.6c-0.2,0-0.4,0.1-0.6,0.2c-0.1,0.2-0.2,0.4-0.3,0.7
		h1.6c0-0.3-0.1-0.5-0.2-0.7C-184.6,415.7-184.8,415.6-185.1,415.6z"/>
	<path class="st0" d="M-181.6,415.2c0.1,0,0.3,0,0.4,0l-0.1,0.4c-0.1,0-0.2,0-0.3,0c-0.3,0-0.5,0.1-0.6,0.3
		c-0.2,0.2-0.3,0.5-0.3,0.8v1.7h-0.5v-3.1h0.4l0.1,0.6l0,0c0.1-0.2,0.3-0.4,0.4-0.5C-181.9,415.3-181.8,415.2-181.6,415.2z"/>
</g>
</svg>
